<?xml version="1.0" encoding="utf-8"?>
<!-- Generator: Adobe Illustrator 25.4.1, SVG Export Plug-In . SVG Version: 6.00 Build 0)  -->
<svg version="1.1" id="Calque_1" xmlns="http://www.w3.org/2000/svg" xmlns:xlink="http://www.w3.org/1999/xlink" x="0px" y="0px"
	 viewBox="0 0 512 512" style="enable-background:new 0 0 512 512;" xml:space="preserve">
<style type="text/css">
	.st0{fill:#313131;}
</style>
<g>
	<g>
		<path class="st0" d="M499.4,250.8c-51-86.3-143.6-140.4-243.4-140.4S63.5,164.5,12.6,250.8c-2.1,3.1-2.1,7.3,0,10.4
			c51,86.3,143.6,140.4,243.4,140.4s192.5-54.1,243.4-140.4C501.5,258.1,501.5,253.9,499.4,250.8L499.4,250.8z M256,380.8
			C165.5,380.8,81.2,333,34.4,256C81.2,179,165.5,131.2,256,131.2S430.8,179,477.6,256C430.8,333,346.5,380.8,256,380.8z"/>
		<path class="st0" d="M256,162.4c-52,0-93.6,41.6-93.6,93.6s41.6,93.6,93.6,93.6s93.6-41.6,93.6-93.6S308,162.4,256,162.4z
			 M256,328.8c-40.6,0-72.8-32.3-72.8-72.8s32.3-72.8,72.8-72.8s72.8,32.3,72.8,72.8S296.6,328.8,256,328.8L256,328.8z"/>
		<path class="st0" d="M256,214.4v20.8c11.4,0,20.8,9.4,20.8,20.8c0,11.4-9.4,20.8-20.8,20.8s-20.8-9.4-20.8-20.8h-20.8
			c0,22.9,18.7,41.6,41.6,41.6s41.6-18.7,41.6-41.6S278.9,214.4,256,214.4L256,214.4z"/>
	</g>
</g>
<rect x="11" y="245.6" transform="matrix(0.7071 0.7071 -0.7071 0.7071 256 -106.0387)" class="st0" width="489.9" height="20.8"/>
</svg>
